{
	"asset":{
		"generator":"Khronos glTF Blender I/O v4.0.44",
		"version":"2.0"
	},
	"extensionsUsed":[
		"KHR_lights_punctual"
	],
	"extensionsRequired":[
		"KHR_lights_punctual"
	],
	"extensions":{
		"KHR_lights_punctual":{
			"lights":[
				{
					"color":[
						1,
						0,
						0.0009595993906259537
					],
					"intensity":7957.747154594767,
					"spot":{
						"innerConeAngle":0.2590503123118575,
						"outerConeAngle":0.30476507544517517
					},
					"type":"spot",
					"name":"Spot.001"
				}
			]
		}
	},
	"scene":0,
	"scenes":[
		{
			"name":"Scene",
			"nodes":[
				0,
				1,
				2,
				3,
				4,
				5,
				6,
				7,
				8,
				9,
				10,
				11
			]
		}
	],
	"nodes":[
		{
			"mesh":0,
			"name":"Mesh_0.001",
			"scale":[
				12.095820426940918,
				12.095820426940918,
				12.095820426940918
			]
		},
		{
			"mesh":1,
			"name":"Mesh_1.001",
			"scale":[
				12.095820426940918,
				12.095820426940918,
				12.095820426940918
			]
		},
		{
			"mesh":2,
			"name":"Mesh_2.001",
			"scale":[
				12.095820426940918,
				12.095820426940918,
				12.095820426940918
			]
		},
		{
			"mesh":3,
			"name":"Mesh_3.001",
			"scale":[
				12.095820426940918,
				12.095820426940918,
				12.095820426940918
			]
		},
		{
			"mesh":4,
			"name":"Mesh_4.001",
			"scale":[
				12.095820426940918,
				12.095820426940918,
				12.095820426940918
			]
		},
		{
			"mesh":5,
			"name":"Mesh_5.001",
			"scale":[
				12.095820426940918,
				12.095820426940918,
				12.095820426940918
			]
		},
		{
			"mesh":6,
			"name":"Mesh_6.001",
			"scale":[
				12.095820426940918,
				12.095820426940918,
				12.095820426940918
			]
		},
		{
			"mesh":7,
			"name":"Mesh_7.001",
			"scale":[
				12.095820426940918,
				12.095820426940918,
				12.095820426940918
			]
		},
		{
			"mesh":8,
			"name":"Mesh_8.001",
			"scale":[
				12.095820426940918,
				12.095820426940918,
				12.095820426940918
			]
		},
		{
			"extensions":{
				"KHR_lights_punctual":{
					"light":0
				}
			},
			"name":"Spot",
			"rotation":[
				1,
				0,
				0,
				0.0002266216033603996
			],
			"translation":[
				0,
				0,
				-4.000802993774414
			]
		},
		{
			"name":"Area",
			"rotation":[
				-0.7596291303634644,
				0,
				0,
				0.6503565907478333
			],
			"translation":[
				0,
				1.5911602973937988,
				0.3681694567203522
			]
		},
		{
			"camera":0,
			"name":"Camera",
			"rotation":[
				-0.04187546670436859,
				0,
				0,
				0.9991228580474854
			],
			"translation":[
				0.020822569727897644,
				0.811011552810669,
				8.664822578430176
			]
		}
	],
	"cameras":[
		{
			"name":"Camera.001",
			"perspective":{
				"aspectRatio":1,
				"yfov":0.6911112070083618,
				"zfar":1000,
				"znear":0.10000000149011612
			},
			"type":"perspective"
		}
	],
	"materials":[
		{
			"doubleSided":true,
			"name":"Material_0.001",
			"pbrMetallicRoughness":{
				"roughnessFactor":0.2454545497894287
			}
		}
	],
	"meshes":[
		{
			"name":"Mesh_0.001",
			"primitives":[
				{
					"attributes":{
						"POSITION":0,
						"NORMAL":1,
						"TEXCOORD_0":2,
						"TANGENT":3
					},
					"indices":4,
					"material":0
				}
			]
		},
		{
			"name":"Mesh_1.001",
			"primitives":[
				{
					"attributes":{
						"POSITION":5,
						"NORMAL":6,
						"TEXCOORD_0":7,
						"TANGENT":8
					},
					"indices":9,
					"material":0
				}
			]
		},
		{
			"name":"Mesh_2.001",
			"primitives":[
				{
					"attributes":{
						"POSITION":10,
						"NORMAL":11,
						"TEXCOORD_0":12,
						"TANGENT":13
					},
					"indices":14,
					"material":0
				}
			]
		},
		{
			"name":"Mesh_3.001",
			"primitives":[
				{
					"attributes":{
						"POSITION":15,
						"NORMAL":16,
						"TEXCOORD_0":17,
						"TANGENT":18
					},
					"indices":19,
					"material":0
				}
			]
		},
		{
			"name":"Mesh_4.001",
			"primitives":[
				{
					"attributes":{
						"POSITION":20,
						"NORMAL":21,
						"TEXCOORD_0":22,
						"TANGENT":23
					},
					"indices":14,
					"material":0
				}
			]
		},
		{
			"name":"Mesh_5.001",
			"primitives":[
				{
					"attributes":{
						"POSITION":24,
						"NORMAL":25,
						"TEXCOORD_0":26,
						"TANGENT":27
					},
					"indices":19,
					"material":0
				}
			]
		},
		{
			"name":"Mesh_6.001",
			"primitives":[
				{
					"attributes":{
						"POSITION":28,
						"NORMAL":29,
						"TEXCOORD_0":30,
						"TANGENT":31
					},
					"indices":32,
					"material":0
				}
			]
		},
		{
			"name":"Mesh_7.001",
			"primitives":[
				{
					"attributes":{
						"POSITION":33,
						"NORMAL":34,
						"TEXCOORD_0":35,
						"TANGENT":36
					},
					"indices":37,
					"material":0
				}
			]
		},
		{
			"name":"Mesh_8.001",
			"primitives":[
				{
					"attributes":{
						"POSITION":38,
						"NORMAL":39,
						"TEXCOORD_0":40,
						"TANGENT":41
					},
					"indices":42,
					"material":0
				}
			]
		}
	],
	"accessors":[
		{
			"bufferView":0,
			"componentType":5126,
			"count":1612,
			"max":[
				0.053000010550022125,
				-0.00737999239936471,
				0.01519999373704195
			],
			"min":[
				0.03588001802563667,
				-0.024499986320734024,
				-0.01520000584423542
			],
			"type":"VEC3"
		},
		{
			"bufferView":1,
			"componentType":5126,
			"count":1612,
			"type":"VEC3"
		},
		{
			"bufferView":2,
			"componentType":5126,
			"count":1612,
			"type":"VEC2"
		},
		{
			"bufferView":3,
			"componentType":5126,
			"count":1612,
			"type":"VEC4"
		},
		{
			"bufferView":4,
			"componentType":5123,
			"count":4596,
			"type":"SCALAR"
		},
		{
			"bufferView":5,
			"componentType":5126,
			"count":1555,
			"max":[
				-0.03587999567389488,
				-0.007419996429234743,
				0.01520000584423542
			],
			"min":[
				-0.05299999564886093,
				-0.024539997801184654,
				-0.01520000584423542
			],
			"type":"VEC3"
		},
		{
			"bufferView":6,
			"componentType":5126,
			"count":1555,
			"type":"VEC3"
		},
		{
			"bufferView":7,
			"componentType":5126,
			"count":1555,
			"type":"VEC2"
		},
		{
			"bufferView":8,
			"componentType":5126,
			"count":1555,
			"type":"VEC4"
		},
		{
			"bufferView":9,
			"componentType":5123,
			"count":4596,
			"type":"SCALAR"
		},
		{
			"bufferView":10,
			"componentType":5126,
			"count":26,
			"max":[
				0.03407999128103256,
				-0.011979992501437664,
				0.01519999373704195
			],
			"min":[
				0.02147999219596386,
				-0.06054000183939934,
				-0.01520000584423542
			],
			"type":"VEC3"
		},
		{
			"bufferView":11,
			"componentType":5126,
			"count":26,
			"type":"VEC3"
		},
		{
			"bufferView":12,
			"componentType":5126,
			"count":26,
			"type":"VEC2"
		},
		{
			"bufferView":13,
			"componentType":5126,
			"count":26,
			"type":"VEC4"
		},
		{
			"bufferView":14,
			"componentType":5123,
			"count":60,
			"type":"SCALAR"
		},
		{
			"bufferView":15,
			"componentType":5126,
			"count":26,
			"max":[
				-0.02144000120460987,
				-0.011979992501437664,
				0.01519999373704195
			],
			"min":[
				-0.03407999128103256,
				-0.06054000183939934,
				-0.01520000584423542
			],
			"type":"VEC3"
		},
		{
			"bufferView":16,
			"componentType":5126,
			"count":26,
			"type":"VEC3"
		},
		{
			"bufferView":17,
			"componentType":5126,
			"count":26,
			"type":"VEC2"
		},
		{
			"bufferView":18,
			"componentType":5126,
			"count":26,
			"type":"VEC4"
		},
		{
			"bufferView":19,
			"componentType":5123,
			"count":60,
			"type":"SCALAR"
		},
		{
			"bufferView":20,
			"componentType":5126,
			"count":26,
			"max":[
				0.01655999757349491,
				0.007940002717077732,
				0.01519999373704195
			],
			"min":[
				0.002559997607022524,
				-0.08845999836921692,
				-0.01520000584423542
			],
			"type":"VEC3"
		},
		{
			"bufferView":21,
			"componentType":5126,
			"count":26,
			"type":"VEC3"
		},
		{
			"bufferView":22,
			"componentType":5126,
			"count":26,
			"type":"VEC2"
		},
		{
			"bufferView":23,
			"componentType":5126,
			"count":26,
			"type":"VEC4"
		},
		{
			"bufferView":24,
			"componentType":5126,
			"count":26,
			"max":[
				-0.002520007314160466,
				0.007940002717077732,
				0.01519999373704195
			],
			"min":[
				-0.01655999757349491,
				-0.08845999836921692,
				-0.01520000584423542
			],
			"type":"VEC3"
		},
		{
			"bufferView":25,
			"componentType":5126,
			"count":26,
			"type":"VEC3"
		},
		{
			"bufferView":26,
			"componentType":5126,
			"count":26,
			"type":"VEC2"
		},
		{
			"bufferView":27,
			"componentType":5126,
			"count":26,
			"type":"VEC4"
		},
		{
			"bufferView":28,
			"componentType":5126,
			"count":685,
			"max":[
				0.037000011652708054,
				0.06774000078439713,
				0.01519999373704195
			],
			"min":[
				-0.037000011652708054,
				0.03094000183045864,
				-0.01520000584423542
			],
			"type":"VEC3"
		},
		{
			"bufferView":29,
			"componentType":5126,
			"count":685,
			"type":"VEC3"
		},
		{
			"bufferView":30,
			"componentType":5126,
			"count":685,
			"type":"VEC2"
		},
		{
			"bufferView":31,
			"componentType":5126,
			"count":685,
			"type":"VEC4"
		},
		{
			"bufferView":32,
			"componentType":5123,
			"count":2394,
			"type":"SCALAR"
		},
		{
			"bufferView":33,
			"componentType":5126,
			"count":85,
			"max":[
				0.06964000314474106,
				0.08845999836921692,
				0.01519999373704195
			],
			"min":[
				0.007520006969571114,
				-0.011979992501437664,
				-0.01520000584423542
			],
			"type":"VEC3"
		},
		{
			"bufferView":34,
			"componentType":5126,
			"count":85,
			"type":"VEC3"
		},
		{
			"bufferView":35,
			"componentType":5126,
			"count":85,
			"type":"VEC2"
		},
		{
			"bufferView":36,
			"componentType":5126,
			"count":85,
			"type":"VEC4"
		},
		{
			"bufferView":37,
			"componentType":5123,
			"count":222,
			"type":"SCALAR"
		},
		{
			"bufferView":38,
			"componentType":5126,
			"count":85,
			"max":[
				-0.0074799926951527596,
				0.08845999836921692,
				0.01519999373704195
			],
			"min":[
				-0.06964000314474106,
				-0.011979992501437664,
				-0.01520000584423542
			],
			"type":"VEC3"
		},
		{
			"bufferView":39,
			"componentType":5126,
			"count":85,
			"type":"VEC3"
		},
		{
			"bufferView":40,
			"componentType":5126,
			"count":85,
			"type":"VEC2"
		},
		{
			"bufferView":41,
			"componentType":5126,
			"count":85,
			"type":"VEC4"
		},
		{
			"bufferView":42,
			"componentType":5123,
			"count":222,
			"type":"SCALAR"
		}
	],
	"bufferViews":[
		{
			"buffer":0,
			"byteLength":19344,
			"byteOffset":0,
			"target":34962
		},
		{
			"buffer":0,
			"byteLength":19344,
			"byteOffset":19344,
			"target":34962
		},
		{
			"buffer":0,
			"byteLength":12896,
			"byteOffset":38688,
			"target":34962
		},
		{
			"buffer":0,
			"byteLength":25792,
			"byteOffset":51584,
			"target":34962
		},
		{
			"buffer":0,
			"byteLength":9192,
			"byteOffset":77376,
			"target":34963
		},
		{
			"buffer":0,
			"byteLength":18660,
			"byteOffset":86568,
			"target":34962
		},
		{
			"buffer":0,
			"byteLength":18660,
			"byteOffset":105228,
			"target":34962
		},
		{
			"buffer":0,
			"byteLength":12440,
			"byteOffset":123888,
			"target":34962
		},
		{
			"buffer":0,
			"byteLength":24880,
			"byteOffset":136328,
			"target":34962
		},
		{
			"buffer":0,
			"byteLength":9192,
			"byteOffset":161208,
			"target":34963
		},
		{
			"buffer":0,
			"byteLength":312,
			"byteOffset":170400,
			"target":34962
		},
		{
			"buffer":0,
			"byteLength":312,
			"byteOffset":170712,
			"target":34962
		},
		{
			"buffer":0,
			"byteLength":208,
			"byteOffset":171024,
			"target":34962
		},
		{
			"buffer":0,
			"byteLength":416,
			"byteOffset":171232,
			"target":34962
		},
		{
			"buffer":0,
			"byteLength":120,
			"byteOffset":171648,
			"target":34963
		},
		{
			"buffer":0,
			"byteLength":312,
			"byteOffset":171768,
			"target":34962
		},
		{
			"buffer":0,
			"byteLength":312,
			"byteOffset":172080,
			"target":34962
		},
		{
			"buffer":0,
			"byteLength":208,
			"byteOffset":172392,
			"target":34962
		},
		{
			"buffer":0,
			"byteLength":416,
			"byteOffset":172600,
			"target":34962
		},
		{
			"buffer":0,
			"byteLength":120,
			"byteOffset":173016,
			"target":34963
		},
		{
			"buffer":0,
			"byteLength":312,
			"byteOffset":173136,
			"target":34962
		},
		{
			"buffer":0,
			"byteLength":312,
			"byteOffset":173448,
			"target":34962
		},
		{
			"buffer":0,
			"byteLength":208,
			"byteOffset":173760,
			"target":34962
		},
		{
			"buffer":0,
			"byteLength":416,
			"byteOffset":173968,
			"target":34962
		},
		{
			"buffer":0,
			"byteLength":312,
			"byteOffset":174384,
			"target":34962
		},
		{
			"buffer":0,
			"byteLength":312,
			"byteOffset":174696,
			"target":34962
		},
		{
			"buffer":0,
			"byteLength":208,
			"byteOffset":175008,
			"target":34962
		},
		{
			"buffer":0,
			"byteLength":416,
			"byteOffset":175216,
			"target":34962
		},
		{
			"buffer":0,
			"byteLength":8220,
			"byteOffset":175632,
			"target":34962
		},
		{
			"buffer":0,
			"byteLength":8220,
			"byteOffset":183852,
			"target":34962
		},
		{
			"buffer":0,
			"byteLength":5480,
			"byteOffset":192072,
			"target":34962
		},
		{
			"buffer":0,
			"byteLength":10960,
			"byteOffset":197552,
			"target":34962
		},
		{
			"buffer":0,
			"byteLength":4788,
			"byteOffset":208512,
			"target":34963
		},
		{
			"buffer":0,
			"byteLength":1020,
			"byteOffset":213300,
			"target":34962
		},
		{
			"buffer":0,
			"byteLength":1020,
			"byteOffset":214320,
			"target":34962
		},
		{
			"buffer":0,
			"byteLength":680,
			"byteOffset":215340,
			"target":34962
		},
		{
			"buffer":0,
			"byteLength":1360,
			"byteOffset":216020,
			"target":34962
		},
		{
			"buffer":0,
			"byteLength":444,
			"byteOffset":217380,
			"target":34963
		},
		{
			"buffer":0,
			"byteLength":1020,
			"byteOffset":217824,
			"target":34962
		},
		{
			"buffer":0,
			"byteLength":1020,
			"byteOffset":218844,
			"target":34962
		},
		{
			"buffer":0,
			"byteLength":680,
			"byteOffset":219864,
			"target":34962
		},
		{
			"buffer":0,
			"byteLength":1360,
			"byteOffset":220544,
			"target":34962
		},
		{
			"buffer":0,
			"byteLength":444,
			"byteOffset":221904,
			"target":34963
		}
	],
	"buffers":[
		{
			"byteLength":222348,
			"uri":"pleaseWORKagain.bin"
		}
	]
}
